<svg width="175" height="31" viewBox="0 0 175 31" fill="none" xmlns="http://www.w3.org/2000/svg">
<g filter="url(#filter0_d_105_682)">
<path d="M4.512 22.096C4.55467 21.7333 4.608 21.36 4.672 20.976C4.75733 20.5707 4.87467 20.1973 5.024 19.856C5.6 19.792 6.03733 19.6747 6.336 19.504C6.63467 19.312 6.85867 18.9707 7.008 18.48C7.15733 17.968 7.328 17.2213 7.52 16.24L9.376 5.52C9.504 4.73067 9.536 4.13333 9.472 3.728C9.42933 3.32267 9.25867 3.03467 8.96 2.864C8.68267 2.69333 8.256 2.56533 7.68 2.48C7.552 1.81867 7.53067 1.08267 7.616 0.271999C8.21333 0.293332 8.81067 0.314665 9.408 0.335999C10.0267 0.357332 10.624 0.367998 11.2 0.367998C11.7973 0.367998 12.3627 0.367998 12.896 0.367998C13.7707 0.367998 14.72 0.357332 15.744 0.335999C16.7893 0.293332 17.9413 0.271999 19.2 0.271999C21.568 0.271999 23.264 0.965333 24.288 2.352C25.312 3.71733 25.6107 5.62667 25.184 8.08C24.9493 9.40267 24.4267 10.576 23.616 11.6C22.8267 12.624 21.8027 13.424 20.544 14C19.2853 14.5547 17.8347 14.832 16.192 14.832C15.8507 14.832 15.5307 14.8107 15.232 14.768C14.9547 14.704 14.7093 14.6187 14.496 14.512C14.4747 14.256 14.496 13.9147 14.56 13.488C14.6453 13.04 14.752 12.688 14.88 12.432C14.9653 12.4747 15.072 12.5067 15.2 12.528C15.328 12.5493 15.488 12.56 15.68 12.56C16.6187 12.56 17.4827 12.176 18.272 11.408C19.0613 10.6187 19.5947 9.488 19.872 8.016C20.192 6.352 20.096 5.01867 19.584 4.016C19.0933 2.992 18.176 2.48 16.832 2.48C16.512 2.48 16.224 2.512 15.968 2.576C15.712 2.61867 15.4133 2.704 15.072 2.832L15.424 2.288L12.992 16.368C12.8427 17.264 12.7893 17.9467 12.832 18.416C12.896 18.864 13.1307 19.1947 13.536 19.408C13.9627 19.6 14.624 19.76 15.52 19.888C15.6053 20.2507 15.648 20.6133 15.648 20.976C15.648 21.3387 15.6373 21.712 15.616 22.096C14.7627 22.0533 13.8773 22.0213 12.96 22C12.0427 22 11.136 22 10.24 22C9.152 22 8.128 22 7.168 22C6.22933 22.0213 5.344 22.0533 4.512 22.096ZM21.3495 22.096C21.3708 21.6693 21.4135 21.2853 21.4775 20.944C21.5415 20.6027 21.6482 20.2507 21.7975 19.888C22.1602 19.8027 22.4802 19.664 22.7575 19.472C23.0562 19.2587 23.3868 18.928 23.7495 18.48C24.1122 18.032 24.5388 17.392 25.0295 16.56C25.5202 15.7493 26.0642 14.864 26.6615 13.904C27.2588 12.9227 27.9308 11.8027 28.6775 10.544C29.4455 9.264 30.3095 7.792 31.2695 6.128C32.2508 4.464 33.3602 2.544 34.5975 0.367998C34.9602 0.261332 35.3015 0.207998 35.6215 0.207998C35.9628 0.186665 36.3468 0.175999 36.7735 0.175999C37.3922 2.20267 37.9788 4.19733 38.5335 6.16C39.0882 8.10133 39.5895 9.936 40.0375 11.664C40.5068 13.3707 40.8908 14.9067 41.1895 16.272C41.4455 17.296 41.6588 18.064 41.8295 18.576C42.0215 19.0667 42.2242 19.3973 42.4375 19.568C42.6508 19.7173 42.9068 19.824 43.2055 19.888C43.2695 20.144 43.3015 20.4747 43.3015 20.88C43.3228 21.264 43.3122 21.6693 43.2695 22.096C42.8642 22.0533 42.3522 22.0213 41.7335 22C41.1148 22 40.5175 22 39.9415 22C39.3655 22 38.9068 22 38.5655 22C38.3095 22 37.9575 22 37.5095 22C37.0615 22 36.5815 22 36.0695 22C35.5575 22.0213 35.0668 22.032 34.5975 22.032C34.1282 22.0533 33.7335 22.0747 33.4135 22.096C33.4348 21.648 33.4775 21.2427 33.5415 20.88C33.6055 20.5173 33.6908 20.1867 33.7975 19.888C34.7148 19.7387 35.2695 19.4827 35.4615 19.12C35.6748 18.7573 35.6855 18.1813 35.4935 17.392C35.1948 16.1547 34.8855 14.9173 34.5655 13.68C34.2668 12.4213 33.9255 11.184 33.5415 9.968C33.3495 9.264 33.1895 8.464 33.0615 7.568C32.9335 6.672 32.8588 5.75467 32.8375 4.816H33.7975C33.3708 5.75467 32.9335 6.672 32.4855 7.568C32.0375 8.464 31.6322 9.264 31.2695 9.968C30.6295 11.184 29.9575 12.4 29.2535 13.616C28.5708 14.8107 27.8775 16.0053 27.1735 17.2C26.8748 17.712 26.6935 18.16 26.6295 18.544C26.5868 18.9067 26.6722 19.2053 26.8855 19.44C27.1202 19.6533 27.4722 19.8027 27.9415 19.888C27.9842 20.2293 28.0162 20.592 28.0375 20.976C28.0588 21.3387 28.0268 21.712 27.9415 22.096C27.6642 22.0747 27.3015 22.0533 26.8535 22.032C26.4055 22.032 25.9468 22.0213 25.4775 22C25.0082 22 24.6028 22 24.2615 22C23.7068 22 23.1735 22 22.6615 22C22.1708 22.0213 21.7335 22.0533 21.3495 22.096ZM26.6935 16.592L27.5255 14.32H35.5255L35.7815 16.24C34.8215 16.24 33.8295 16.2507 32.8055 16.272C31.8028 16.2933 30.7788 16.3253 29.7335 16.368C28.7095 16.4107 27.6962 16.4853 26.6935 16.592ZM44.768 19.888C45.3653 19.7173 45.856 19.4933 46.24 19.216C46.624 18.9387 46.9333 18.512 47.168 17.936C47.4027 17.3387 47.616 16.496 47.808 15.408L50.112 2.352L52.256 2.544L50.048 15.312C49.856 16.4213 49.76 17.2853 49.76 17.904C49.7813 18.5013 49.952 18.9387 50.272 19.216C50.592 19.4933 51.1147 19.7173 51.84 19.888C51.904 20.2293 51.936 20.592 51.936 20.976C51.936 21.3387 51.9147 21.712 51.872 22.096C51.168 22.0533 50.4853 22.0213 49.824 22C49.184 22 48.6187 22 48.128 22C47.5733 22 46.976 22 46.336 22C45.696 22.0213 45.0347 22.0533 44.352 22.096C44.3733 21.2427 44.512 20.5067 44.768 19.888ZM47.616 0.271999C48.192 0.314665 48.7787 0.346665 49.376 0.367998C49.9947 0.367998 50.5813 0.367998 51.136 0.367998C51.6907 0.367998 52.256 0.367998 52.832 0.367998C53.4293 0.346665 53.9733 0.314665 54.464 0.271999C55.8507 2.53333 57.2053 4.88 58.528 7.312C59.872 9.744 61.1307 12.1547 62.304 14.544L60.096 22.288C58.4533 19.0667 56.768 15.888 55.04 12.752C53.312 9.616 51.5307 6.50133 49.696 3.408C49.504 3.06667 49.2693 2.84267 48.992 2.736C48.736 2.608 48.288 2.52267 47.648 2.48C47.584 2.13867 47.552 1.78667 47.552 1.424C47.552 1.06133 47.5733 0.677333 47.616 0.271999ZM60.96 0.271999C61.6213 0.314665 62.2613 0.346665 62.88 0.367998C63.52 0.367998 64.0747 0.367998 64.544 0.367998C65.12 0.367998 65.7493 0.367998 66.432 0.367998C67.1147 0.346665 67.7547 0.314665 68.352 0.271999C68.3307 0.634665 68.2773 1.01867 68.192 1.424C68.128 1.82933 68.0427 2.18133 67.936 2.48C67.36 2.65067 66.912 2.88533 66.592 3.184C66.272 3.48267 66.0053 3.93067 65.792 4.528C65.6 5.12533 65.408 5.97867 65.216 7.088L62.624 22C62.24 22.128 61.8453 22.2027 61.44 22.224C61.0347 22.2667 60.5867 22.288 60.096 22.288L61.504 15.856L62.912 7.024C63.104 5.89333 63.1787 5.04 63.136 4.464C63.0933 3.86667 62.9013 3.42933 62.56 3.152C62.24 2.85333 61.7173 2.62933 60.992 2.48C60.928 2.13867 60.896 1.776 60.896 1.392C60.896 1.008 60.9173 0.634665 60.96 0.271999ZM75.012 16.208C74.5427 14.3733 74.0307 12.5707 73.476 10.8C72.9427 9.008 72.3667 7.22667 71.748 5.456C71.4707 4.64533 71.2147 4.048 70.98 3.664C70.7667 3.25867 70.5533 2.98133 70.34 2.832C70.1267 2.66133 69.8707 2.544 69.572 2.48C69.508 2.20267 69.4653 1.872 69.444 1.488C69.444 1.08267 69.476 0.677333 69.54 0.271999C70.052 0.293332 70.596 0.314665 71.172 0.335999C71.7693 0.357332 72.3347 0.367998 72.868 0.367998C73.4227 0.367998 73.86 0.367998 74.18 0.367998C74.564 0.367998 75.044 0.367998 75.62 0.367998C76.2173 0.367998 76.8467 0.357332 77.508 0.335999C78.1693 0.314665 78.82 0.293332 79.46 0.271999C79.4387 0.719999 79.3853 1.136 79.3 1.52C79.236 1.88267 79.1507 2.20267 79.044 2.48C78.084 2.608 77.508 2.87467 77.316 3.28C77.124 3.664 77.156 4.25067 77.412 5.04C77.7747 6.14933 78.1053 7.30133 78.404 8.496C78.7027 9.69067 78.9693 10.9387 79.204 12.24L78.596 11.728C79.2573 10.6613 79.8867 9.584 80.484 8.496C81.0813 7.408 81.6573 6.288 82.212 5.136C82.6387 4.304 82.7987 3.68533 82.692 3.28C82.6067 2.87467 82.1693 2.608 81.38 2.48C81.252 1.81867 81.2413 1.08267 81.348 0.271999C81.8813 0.314665 82.4787 0.346665 83.14 0.367998C83.8227 0.367998 84.42 0.367998 84.932 0.367998C85.508 0.367998 86.02 0.367998 86.468 0.367998C86.9373 0.346665 87.4813 0.314665 88.1 0.271999C88.0787 1.06133 87.94 1.79733 87.684 2.48C87.4493 2.544 87.2147 2.65067 86.98 2.8C86.7667 2.928 86.5107 3.184 86.212 3.568C85.9347 3.93067 85.5613 4.50667 85.092 5.296C83.9187 7.28 82.756 9.168 81.604 10.96C80.452 12.7307 79.2573 14.48 78.02 16.208H75.012ZM69.796 22.096C69.8387 21.6693 69.9027 21.264 69.988 20.88C70.0733 20.496 70.1693 20.1653 70.276 19.888C71.1507 19.76 71.812 19.6 72.26 19.408C72.7293 19.216 73.0707 18.8853 73.284 18.416C73.4973 17.9253 73.6787 17.2 73.828 16.24L74.436 12.784H79.972L79.3 16.56C79.172 17.3493 79.1293 17.9573 79.172 18.384C79.236 18.8107 79.46 19.1307 79.844 19.344C80.2493 19.5573 80.9 19.7387 81.796 19.888C81.86 20.2507 81.892 20.624 81.892 21.008C81.9133 21.392 81.9027 21.7547 81.86 22.096C81.1773 22.0533 80.3347 22.0213 79.332 22C78.3507 22 77.2947 22 76.164 22C74.9267 22 73.7533 22 72.644 22C71.556 22.0213 70.6067 22.0533 69.796 22.096ZM83.7557 22.096C83.7771 21.6693 83.8197 21.2853 83.8837 20.944C83.9477 20.6027 84.0544 20.2507 84.2037 19.888C84.5664 19.8027 84.8864 19.664 85.1638 19.472C85.4624 19.2587 85.7931 18.928 86.1558 18.48C86.5184 18.032 86.9451 17.392 87.4358 16.56C87.9264 15.7493 88.4704 14.864 89.0677 13.904C89.6651 12.9227 90.3371 11.8027 91.0838 10.544C91.8518 9.264 92.7158 7.792 93.6758 6.128C94.6571 4.464 95.7664 2.544 97.0038 0.367998C97.3664 0.261332 97.7078 0.207998 98.0278 0.207998C98.3691 0.186665 98.7531 0.175999 99.1798 0.175999C99.7984 2.20267 100.385 4.19733 100.94 6.16C101.494 8.10133 101.996 9.936 102.444 11.664C102.913 13.3707 103.297 14.9067 103.596 16.272C103.852 17.296 104.065 18.064 104.236 18.576C104.428 19.0667 104.63 19.3973 104.844 19.568C105.057 19.7173 105.313 19.824 105.612 19.888C105.676 20.144 105.708 20.4747 105.708 20.88C105.729 21.264 105.718 21.6693 105.676 22.096C105.27 22.0533 104.758 22.0213 104.14 22C103.521 22 102.924 22 102.348 22C101.772 22 101.313 22 100.972 22C100.716 22 100.364 22 99.9158 22C99.4678 22 98.9878 22 98.4758 22C97.9638 22.0213 97.4731 22.032 97.0038 22.032C96.5344 22.0533 96.1398 22.0747 95.8198 22.096C95.8411 21.648 95.8838 21.2427 95.9478 20.88C96.0118 20.5173 96.0971 20.1867 96.2038 19.888C97.1211 19.7387 97.6758 19.4827 97.8678 19.12C98.0811 18.7573 98.0918 18.1813 97.8998 17.392C97.6011 16.1547 97.2918 14.9173 96.9718 13.68C96.6731 12.4213 96.3318 11.184 95.9478 9.968C95.7558 9.264 95.5958 8.464 95.4678 7.568C95.3398 6.672 95.2651 5.75467 95.2438 4.816H96.2038C95.7771 5.75467 95.3398 6.672 94.8918 7.568C94.4438 8.464 94.0384 9.264 93.6758 9.968C93.0358 11.184 92.3638 12.4 91.6598 13.616C90.9771 14.8107 90.2838 16.0053 89.5798 17.2C89.2811 17.712 89.0998 18.16 89.0358 18.544C88.9931 18.9067 89.0784 19.2053 89.2918 19.44C89.5264 19.6533 89.8784 19.8027 90.3478 19.888C90.3904 20.2293 90.4224 20.592 90.4438 20.976C90.4651 21.3387 90.4331 21.712 90.3478 22.096C90.0704 22.0747 89.7078 22.0533 89.2598 22.032C88.8118 22.032 88.3531 22.0213 87.8838 22C87.4144 22 87.0091 22 86.6678 22C86.1131 22 85.5798 22 85.0678 22C84.5771 22.0213 84.1397 22.0533 83.7557 22.096ZM89.0998 16.592L89.9318 14.32H97.9318L98.1878 16.24C97.2278 16.24 96.2358 16.2507 95.2118 16.272C94.2091 16.2933 93.1851 16.3253 92.1398 16.368C91.1158 16.4107 90.1024 16.4853 89.0998 16.592ZM104.353 0.271999C104.886 0.293332 105.441 0.314665 106.016 0.335999C106.614 0.357332 107.179 0.367998 107.713 0.367998C108.246 0.367998 108.683 0.367998 109.025 0.367998C109.43 0.367998 109.921 0.367998 110.497 0.367998C111.073 0.367998 111.691 0.357332 112.353 0.335999C113.014 0.314665 113.654 0.293332 114.273 0.271999C114.273 0.698666 114.23 1.104 114.145 1.488C114.081 1.872 113.995 2.20267 113.889 2.48C113.249 2.56533 112.779 2.72533 112.481 2.96C112.182 3.19467 112.033 3.55733 112.033 4.048C112.033 4.51733 112.139 5.15733 112.353 5.968C112.843 7.76 113.281 9.53067 113.665 11.28C114.07 13.008 114.454 14.928 114.817 17.04L114.017 16.496C115.297 14.448 116.385 12.5813 117.281 10.896C118.177 9.21067 118.945 7.64267 119.585 6.192C119.99 5.27467 120.225 4.57067 120.289 4.08C120.353 3.58933 120.257 3.22667 120.001 2.992C119.745 2.736 119.339 2.56533 118.785 2.48C118.657 1.81867 118.646 1.08267 118.753 0.271999C119.265 0.314665 119.851 0.346665 120.513 0.367998C121.195 0.367998 121.782 0.367998 122.273 0.367998C122.87 0.367998 123.393 0.367998 123.841 0.367998C124.31 0.346665 124.865 0.314665 125.505 0.271999C125.483 1.06133 125.345 1.79733 125.089 2.48C124.747 2.56533 124.438 2.736 124.161 2.992C123.883 3.22667 123.595 3.61067 123.297 4.144C122.998 4.656 122.603 5.392 122.113 6.352C120.854 8.912 119.521 11.472 118.113 14.032C116.705 16.5707 115.169 19.2267 113.505 22C113.163 22.128 112.758 22.2027 112.289 22.224C111.841 22.2453 111.403 22.256 110.977 22.256C110.529 20.3573 110.059 18.4693 109.569 16.592C109.099 14.6933 108.609 12.8373 108.097 11.024C107.606 9.18933 107.115 7.44 106.625 5.776C106.39 4.85867 106.166 4.18667 105.953 3.76C105.761 3.33333 105.547 3.03467 105.312 2.864C105.078 2.69333 104.769 2.56533 104.385 2.48C104.321 2.20267 104.278 1.872 104.257 1.488C104.257 1.08267 104.289 0.677333 104.353 0.271999ZM133.6 22.288C131.317 22.288 129.408 21.7867 127.872 20.784C126.357 19.7813 125.29 18.4053 124.672 16.656C124.074 14.8853 123.989 12.8587 124.416 10.576C124.714 8.95467 125.237 7.504 125.984 6.224C126.752 4.92267 127.68 3.81333 128.768 2.896C129.856 1.97867 131.082 1.28533 132.448 0.815998C133.813 0.325331 135.274 0.079998 136.832 0.079998C139.05 0.079998 140.928 0.549332 142.464 1.488C144.021 2.42667 145.12 3.76 145.76 5.488C146.421 7.216 146.528 9.264 146.08 11.632C145.696 13.7013 144.928 15.5467 143.776 17.168C142.624 18.768 141.184 20.0267 139.456 20.944C137.728 21.84 135.776 22.288 133.6 22.288ZM133.952 20.08C135.018 20.08 135.978 19.7067 136.832 18.96C137.685 18.192 138.421 17.1467 139.04 15.824C139.658 14.48 140.128 12.9333 140.448 11.184C140.746 9.47733 140.778 7.952 140.544 6.608C140.33 5.264 139.872 4.19733 139.168 3.408C138.464 2.61867 137.557 2.224 136.448 2.224C135.445 2.224 134.517 2.56533 133.664 3.248C132.832 3.93067 132.117 4.89067 131.52 6.128C130.922 7.344 130.464 8.77333 130.144 10.416C129.888 11.76 129.77 13.0187 129.792 14.192C129.813 15.344 129.973 16.368 130.272 17.264C130.592 18.1387 131.05 18.832 131.648 19.344C132.266 19.8347 133.034 20.08 133.952 20.08ZM146.737 19.888C147.334 19.7173 147.825 19.4933 148.209 19.216C148.593 18.9387 148.902 18.512 149.137 17.936C149.371 17.3387 149.585 16.496 149.777 15.408L152.081 2.352L154.225 2.544L152.017 15.312C151.825 16.4213 151.729 17.2853 151.729 17.904C151.75 18.5013 151.921 18.9387 152.241 19.216C152.561 19.4933 153.083 19.7173 153.809 19.888C153.873 20.2293 153.905 20.592 153.905 20.976C153.905 21.3387 153.883 21.712 153.841 22.096C153.137 22.0533 152.454 22.0213 151.793 22C151.153 22 150.587 22 150.097 22C149.542 22 148.945 22 148.305 22C147.665 22.0213 147.003 22.0533 146.321 22.096C146.342 21.2427 146.481 20.5067 146.737 19.888ZM149.585 0.271999C150.161 0.314665 150.747 0.346665 151.345 0.367998C151.963 0.367998 152.55 0.367998 153.105 0.367998C153.659 0.367998 154.225 0.367998 154.801 0.367998C155.398 0.346665 155.942 0.314665 156.433 0.271999C157.819 2.53333 159.174 4.88 160.497 7.312C161.841 9.744 163.099 12.1547 164.273 14.544L162.065 22.288C160.422 19.0667 158.737 15.888 157.009 12.752C155.281 9.616 153.499 6.50133 151.665 3.408C151.473 3.06667 151.238 2.84267 150.961 2.736C150.705 2.608 150.257 2.52267 149.617 2.48C149.553 2.13867 149.521 1.78667 149.521 1.424C149.521 1.06133 149.542 0.677333 149.585 0.271999ZM162.929 0.271999C163.59 0.314665 164.23 0.346665 164.849 0.367998C165.489 0.367998 166.043 0.367998 166.513 0.367998C167.089 0.367998 167.718 0.367998 168.401 0.367998C169.083 0.346665 169.723 0.314665 170.321 0.271999C170.299 0.634665 170.246 1.01867 170.161 1.424C170.097 1.82933 170.011 2.18133 169.905 2.48C169.329 2.65067 168.881 2.88533 168.561 3.184C168.241 3.48267 167.974 3.93067 167.761 4.528C167.569 5.12533 167.377 5.97867 167.185 7.088L164.593 22C164.209 22.128 163.814 22.2027 163.409 22.224C163.003 22.2667 162.555 22.288 162.065 22.288L163.473 15.856L164.881 7.024C165.073 5.89333 165.147 5.04 165.105 4.464C165.062 3.86667 164.87 3.42933 164.529 3.152C164.209 2.85333 163.686 2.62933 162.961 2.48C162.897 2.13867 162.865 1.776 162.865 1.392C162.865 1.008 162.886 0.634665 162.929 0.271999Z" fill="#DBF3F9"/>
</g>
<defs>
<filter id="filter0_d_105_682" x="0.511993" y="0.0799866" width="173.809" height="30.208" filterUnits="userSpaceOnUse" color-interpolation-filters="sRGB">
<feFlood flood-opacity="0" result="BackgroundImageFix"/>
<feColorMatrix in="SourceAlpha" type="matrix" values="0 0 0 0 0 0 0 0 0 0 0 0 0 0 0 0 0 0 127 0" result="hardAlpha"/>
<feOffset dy="4"/>
<feGaussianBlur stdDeviation="2"/>
<feComposite in2="hardAlpha" operator="out"/>
<feColorMatrix type="matrix" values="0 0 0 0 0.156863 0 0 0 0 0.180392 0 0 0 0 0.188235 0 0 0 0.56 0"/>
<feBlend mode="normal" in2="BackgroundImageFix" result="effect1_dropShadow_105_682"/>
<feBlend mode="normal" in="SourceGraphic" in2="effect1_dropShadow_105_682" result="shape"/>
</filter>
</defs>
</svg>
